<?xml version="1.0"?>
<svg xmlns="http://www.w3.org/2000/svg" height="512px" viewBox="-60 0 512 512.001" width="512px"><g><path d="m374.414062 79.933594 10.890626-22.222656c6.503906-13.285157 6.042968-29.34375-1.175782-40.914063-6.757812-10.832031-18.433594-16.796875-32.878906-16.796875h-310.5c-14.445312 0-26.121094 5.964844-32.878906 16.796875-7.214844 11.566406-7.675782 27.628906-1.171875 40.917969l10.886719 22.21875c-12.769532 60.355468-18.332032 115.84375-17.5039068 174.382812.7109378 50.292969 5.9804688 103.496094 17.6015628 177.519532l-10.988282 22.429687c-6.503906 13.304687-6.039062 29.378906 1.183594 40.949219 6.761719 10.824218 18.433594 16.785156 32.871094 16.785156h310.5c14.441406 0 26.113281-5.960938 32.871094-16.785156 7.222656-11.570313 7.6875-27.644532 1.183594-40.957032l-10.988282-22.421874c11.621094-74.023438 16.894532-127.226563 17.605469-177.519532.824219-58.539062-4.738281-114.027344-17.507813-174.382812zm-3.019531 407.335937c-3.972656 6.367188-10.9375 9.730469-20.144531 9.730469h-310.5c-9.207031 0-16.171875-3.367188-20.144531-9.730469-4.546875-7.285156-4.714844-17.652343-.4375-26.410156l9.96875-20.347656h331.726562l9.964844 20.339843c4.285156 8.765626 4.113281 19.132813-.433594 26.417969zm-11.277343-61.761719h-328.234376c-19.605468-126.007812-25.261718-218.914062-.320312-339.046874h157.117188c4.144531 0 7.5-3.355469 7.5-7.5 0-4.140626-3.355469-7.5-7.5-7.5h-158.542969l-9.96875-20.34375c-4.277344-8.746094-4.109375-19.101563.429687-26.378907 3.976563-6.371093 10.941406-9.734375 20.152344-9.734375h310.5c9.207031 0 16.175781 3.363282 20.148438 9.734375 4.542968 7.277344 4.710937 17.632813.429687 26.375l-9.96875 20.347657h-138.175781c-4.140625 0-7.5 3.359374-7.5 7.5 0 4.144531 3.359375 7.5 7.5 7.5h136.753906c24.941406 120.132812 19.285156 213.039062-.320312 339.046874zm0 0" data-original="#000000" class="active-path" data-old_color="#000000" fill="#FFFFFF"/><path d="m269.066406 306.082031c17.605469-21.773437 21.90625-48.449219 11.667969-74.332031-8.1875-20.699219-24.921875-38.765625-48.398437-52.246094-25.226563-14.484375-57.679688-23.042968-93.847657-24.753906-.128906-.003906-.25-.007812-.390625-.007812-23.605468.105468-36.136718 11.371093-37.242187 33.488281-.003907.128906-.007813.253906-.007813.378906.019532 30.449219 8.757813 61.539063 24.613282 87.542969 15.28125 25.058594 35.960937 43.859375 58.226562 52.9375 9.894531 4.035156 19.679688 6.03125 29.152344 6.03125 16.617187 0 32.265625-6.160156 45.851562-18.203125l28.488282 27.492187c1.457031 1.402344 3.332031 2.101563 5.207031 2.101563 1.964843 0 3.925781-.765625 5.398437-2.289063 2.875-2.980468 2.792969-7.730468-.1875-10.605468zm-10.855468-10.472656-16.652344-16.070313 2.425781-31.683593c.316406-4.132813-2.773437-7.734375-6.90625-8.050781-4.132813-.324219-7.734375 2.773437-8.050781 6.90625l-1.476563 19.308593-22.386719-21.601562 1.859376-24.664063c.3125-4.128906-2.78125-7.730468-6.914063-8.042968-4.144531-.316407-7.730469 2.785156-8.042969 6.914062l-.925781 12.261719-14.953125-14.429688c-2.976562-2.875-7.726562-2.792969-10.605469.191407-2.875 2.976562-2.789062 7.726562.191407 10.601562l14.542968 14.035156-10.023437.847656c-4.128907.347657-7.191407 3.976563-6.84375 8.105469.332031 3.910157 3.609375 6.867188 7.464843 6.867188.214844 0 .425782-.007813.640626-.027344l23.105468-1.953125 22.058594 21.285156-16.585938 1.410156c-4.128906.351563-7.191406 3.980469-6.839843 8.105469.332031 3.914063 3.609375 6.867188 7.464843 6.867188.214844 0 .429688-.007813.644532-.027344l29.65625-2.519531 16.804687 16.21875c-21.136719 18.109375-43.234375 14.960937-58.511719 8.730468-35.566406-14.5-73.386718-63.71875-73.5-126.402343.617188-11.667969 4.585938-18.921875 22.125-19.050781 76.730469 3.675781 116.847657 37.28125 128.8125 67.523437 7.976563 20.183594 4.804688 41.046875-8.578124 58.34375zm0 0" data-original="#000000" class="active-path" data-old_color="#000000" fill="#FFFFFF"/></g> </svg>
