<svg id="Layer_3" enable-background="new 0 0 64 64" height="512" viewBox="0 0 64 64" width="512" xmlns="http://www.w3.org/2000/svg"><path d="m29 39c-1.654 0-3 1.346-3 3s1.346 3 3 3 3-1.346 3-3-1.346-3-3-3zm0 4c-.551 0-1-.448-1-1s.449-1 1-1 1 .448 1 1-.449 1-1 1z"/><path d="m58 38h4c.552 0 1-.447 1-1v-10c0-.553-.448-1-1-1h-4c-.552 0-1 .447-1 1v1h-6.816c-7.08 0-13.755 2.613-18.934 7.378-.708-.241-1.462-.378-2.25-.378-1.179 0-2.288.296-3.264.812-1.452-.818-5.534-3.812-9.122-6.601-.214-.167-.485-.238-.755-.201l-2.859.408v-6.8l1.658.829c.724.362 1.534.553 2.342.553s1.618-.191 2.342-.553l3.105-1.553c.339-.169.553-.515.553-.894s-.214-.725-.553-.895l-3.106-1.553c-.132-.066-.269-.119-.405-.172.262-.218.529-.431.771-.673 1.437-1.437 2.457-3.238 2.949-5.209l.314-1.256c.085-.341-.015-.701-.263-.949-.249-.249-.61-.35-.95-.263l-1.255.313c-1.971.492-3.772 1.512-5.209 2.949-.12.12-.219.256-.333.381.012-.224.04-.448.04-.673 0-2.117-.5-4.237-1.447-6.131l-.658-1.316c-.339-.678-1.45-.678-1.789 0l-.658 1.316c-.948 1.894-1.448 4.014-1.448 6.131 0 .225.028.449.04.674-.114-.125-.213-.261-.333-.381-1.437-1.438-3.238-2.457-5.208-2.948l-1.256-.315c-.338-.087-.701.014-.95.263-.249.248-.348.608-.263.949l.314 1.256c.493 1.971 1.512 3.772 2.949 5.209.242.242.509.455.771.673-.137.054-.274.107-.406.172l-3.105 1.553c-.339.17-.553.516-.553.895s.214.725.553.895l3.105 1.553c.724.361 1.534.552 2.342.552s1.618-.191 2.342-.553l1.658-.829v7.086l-9.142 1.306c-.451.064-.802.427-.852.88-.051.452.211.883.638 1.045l9.356 3.564v11.003l-9.356 3.564c-.426.162-.688.593-.638 1.045.05.453.401.815.852.88l9.142 1.305v3.704h2v-3.418l2.858.408c.048.007.095.01.142.01.221 0 .438-.073.614-.211 3.588-2.79 7.67-5.783 9.122-6.601.976.516 2.085.812 3.264.812.788 0 1.542-.137 2.249-.378 5.179 4.765 11.855 7.378 18.935 7.378h6.816v1c0 .553.448 1 1 1h4c.552 0 1-.447 1-1v-10c0-.553-.448-1-1-1h-4c-.552 0-1 .447-1 1v1h-7.716c-5.019 0-9.738-1.94-13.312-5.453.014-.181.028-.362.028-.547s-.014-.366-.028-.547c3.576-3.514 8.294-5.453 13.312-5.453h7.716v1c0 .553.448 1 1 1zm1-10h2v8h-2zm-39.236-7-1.316.658c-.896.447-2 .447-2.896 0l-1.316-.658 1.316-.658c.896-.447 2-.447 2.895 0zm-3.057-6.293c1.09-1.09 2.434-1.887 3.907-2.321-.435 1.474-1.232 2.817-2.321 3.907-1.09 1.09-2.434 1.887-3.907 2.321.434-1.473 1.232-2.817 2.321-3.907zm-4.707-6.441c.656 1.486 1 3.111 1 4.734s-.344 3.248-1 4.734c-.656-1.486-1-3.111-1-4.734s.344-3.248 1-4.734zm-8.614 4.12c1.473.435 2.817 1.231 3.907 2.321 1.089 1.09 1.887 2.434 2.321 3.907-1.473-.435-2.817-1.231-3.907-2.321-1.089-1.09-1.887-2.434-2.321-3.907zm5.062 9.272c-.896.447-2 .447-2.896 0l-1.316-.658 1.316-.658c.896-.447 2-.447 2.895 0l1.317.658zm50.552 26.342h2v8h-2zm-43.278-16.95c4.416 3.426 6.883 5.159 8.297 6.04-.505.512-.927 1.103-1.256 1.75l-9.763-3.72v-3.682zm-9.751 1.392 5.029-.718v2.634zm7.029 4.819 9.12 3.474c-.075.411-.12.833-.12 1.265s.045.854.12 1.265l-9.12 3.474zm2.722 15.689-9.75-1.393 16.791-6.397c.329.647.752 1.238 1.256 1.75-1.415.881-3.881 2.614-8.297 6.04zm8.278-10.95c0-2.757 2.243-5 5-5s5 2.243 5 5-2.243 5-5 5-5-2.243-5-5zm33 12h-2v-4h2zm-7.716-4h3.716v4h-2.816c-6.331 0-12.312-2.253-17.041-6.371.996-.735 1.795-1.723 2.29-2.874 3.835 3.379 8.695 5.245 13.851 5.245zm-13.851-10.755c-.495-1.151-1.294-2.139-2.29-2.874 4.729-4.118 10.71-6.371 17.041-6.371h2.816v4h-3.716c-5.155 0-10.015 1.865-13.851 5.245zm19.567-5.245v-4h2v4z"/></svg>