<?xml version="1.0"?>
<svg xmlns="http://www.w3.org/2000/svg" height="512px" viewBox="0 0 47 60" width="512px" class=""><g><g id="Page-1" fill="none" fill-rule="evenodd"><g id="010---Bug-Spray" fill="rgb(0,0,0)" fill-rule="nonzero"><path id="Shape" d="m47 55v-16.349c.0096522-3.1053466-1.59089-5.9938162-4.229-7.632l-2.361-1.475c-.8795943-.5458886-1.4132752-1.5087852-1.41-2.544v-3c-.0026123-1.9857236-1.180052-3.7817116-3-4.576v-1.424c0-1.491 1.718-3 5-3 2.458 0 5 0 5-2 0-2.111-.649-9-9-9h-18c-.0361364.00482694-.0718905.01217825-.107.022-.0296477-.00149944-.0593523-.00149944-.089 0l-3.393.678c-1.3998825.2830742-2.4075113 1.51178792-2.411 2.94v.72c.0034887 1.42821208 1.0111175 2.6569258 2.411 2.94l3.393.678c.0643713.0142451.1300724.0216197.196.022h2c.5217452.0013392 1.0416829.0613836 1.55.179-1.0269344 2.0225417-2.7853683 3.5782444-4.918 4.351-.3815069.1509902-.6320715.5197007-.632.93v2.54c0 .5522847.4477153 1 1 1h.093c3.5785803-.4430614 6.880206-2.1529396 9.307-4.82.3949753.8877079.5993752 1.8483877.6 2.82v.424c-1.819948.7942884-2.9973877 2.5902764-3 4.576v3c.0032752 1.0352148-.5304057 1.9981114-1.41 2.544l-2.361 1.475c-2.63811 1.6381838-4.2386522 4.5266534-4.229 7.632v16.349c.0033061 2.7600532 2.2399468 4.9966939 5 5h20c2.7600532-.0033061 4.9966939-2.2399468 5-5zm-32-46.64v-.72c-.0005727-.47564422.3339653-.88587143.8-.981l2.2-.439v3.56l-2.2-.439c-.4660347-.09512857-.8005727-.50535578-.8-.981zm4 10.451v-.69c2.3805967-1.0255696 4.3079653-2.8804487 5.424-5.22.687426.3889935 1.3046707.8906315 1.826 1.484-1.8280779 2.2739501-4.3919694 3.8391617-7.25 4.426zm9.34-5c-.01-.016-.022-.03-.034-.046-1.0131831-1.4115532-2.4121351-2.5007843-4.029-3.137-.012-.005-.02-.016-.033-.02s-.023 0-.034 0c-1.0235768-.3980966-2.1117395-.6042035-3.21-.608h-1v-4h17c5.936 0 6.95 4.165 7 6.8-.988812.1831656-1.9956245.2502864-3 .2-4.81 0-7 2.592-7 5v1h-4c.0002852-1.8606-.5800173-3.6749192-1.66-5.19zm-1.34 10.189c0-1.6568542 1.3431458-3 3-3h4c1.6568542 0 3 1.3431458 3 3v1h-10zm18 31c0 1.6568542-1.3431458 3-3 3h-20c-1.6568542 0-3-1.3431458-3-3v-16.349c-.0079008-2.4155677 1.2374199-4.6624441 3.29-5.936l2.36-1.475c1.4660872-.9097222 2.355588-2.5146087 2.35-4.24h10c-.005588 1.7253913.8839128 3.3302778 2.35 4.24l2.36 1.475c2.0525801 1.2735559 3.2979008 3.5204323 3.29 5.936z" data-original="#000000" class="active-path" data-old_color="#000000" fill="#FFFFFF"/><path id="Shape" d="m42.242 41.03c-.5353845-.1335558-1.0777678.1917847-1.212.727l-.854 3.418-2.262.566c-.1004014-.8774844-.3365523-1.7340373-.7-2.539l1.495-1.495c.1868162-.1878197.2914742-.4420919.291-.707v-4c0-.5522847-.4477153-1-1-1s-1 .4477153-1 1v3.586l-.965.965c-.013-.012-.022-.027-.035-.038v-.513c0-2.209139-1.790861-4-4-4s-4 1.790861-4 4v.513c-.013.011-.022.026-.035.038l-.965-.965v-3.586c0-.5522847-.4477153-1-1-1s-1 .4477153-1 1v4c.0000566.2651948.1054506.5195073.293.707l1.495 1.493c-.3634477.8049627-.5995986 1.6615156-.7 2.539l-2.262-.566-.854-3.418c-.1373346-.5320593-.6782442-.8536288-1.2112708-.7200974-.5330265.1335314-.8584506.6721308-.7287292 1.2060974l1 4c.0898337.3581544.3697224.6376587.728.727l3.284.821c.0580681.5735119.1953754 1.1362028.408 1.672l-1.766.588c-.2985533.0997684-.5327038.3342893-.632.633l-1 3c-.1128959.3394023-.0361471.7132523.201336.9807242.237483.2674719.599621.3879304.95.316.350379-.0719305.6357681-.3253219.748664-.6647242l.843-2.525 1.767-.59c2.4755041 2.3989184 6.4084959 2.3989184 8.884 0l1.767.59.843 2.525c.1128959.3394023.398285.5927937.748664.6647241s.712517-.0485281.95-.316c.2374831-.2674719.3142319-.6413218.201336-.9807241l-1-3c-.0992962-.2987107-.3334467-.5332316-.632-.633l-1.766-.588c.2126246-.5357972.3499319-1.0984881.408-1.672l3.284-.821c.3582776-.0893413.6381663-.3688456.728-.727l1-4c.0634993-.2584989.0213175-.5316472-.1172031-.7589485-.1385205-.2273013-.3619475-.3899963-.6207969-.4520515zm-10.242 9.97c-1.0807712.0698544-2.1392814-.3290881-2.9050967-1.0949033-.7658152-.7658153-1.1647577-1.8243255-1.0949033-2.9050967 0-1.438.408-3.394 1.56-4.171.2752851-.1860724.4401686-.4967278.44-.829v-1c0-1.1045695.8954305-2 2-2s2 .8954305 2 2v1c-.0001686.3322722.1647149.6429276.44.829 1.152.777 1.56 2.733 1.56 4.171.0698544 1.0807712-.3290881 2.1392814-1.0949033 2.9050967-.7658153.7658152-1.8243255 1.1647577-2.9050967 1.0949033z" data-original="#000000" class="active-path" data-old_color="#000000" fill="#FFFFFF"/><circle id="Oval" cx="9" cy="8" r="1" data-original="#000000" class="active-path" data-old_color="#000000" fill="#FFFFFF"/><circle id="Oval" cx="10" cy="11" r="1" data-original="#000000" class="active-path" data-old_color="#000000" fill="#FFFFFF"/><circle id="Oval" cx="7" cy="13" r="1" data-original="#000000" class="active-path" data-old_color="#000000" fill="#FFFFFF"/><circle id="Oval" cx="4" cy="15" r="1" data-original="#000000" class="active-path" data-old_color="#000000" fill="#FFFFFF"/><circle id="Oval" cx="10" cy="5" r="1" data-original="#000000" class="active-path" data-old_color="#000000" fill="#FFFFFF"/><circle id="Oval" cx="7" cy="3" r="1" data-original="#000000" class="active-path" data-old_color="#000000" fill="#FFFFFF"/><circle id="Oval" cx="4" cy="1" r="1" data-original="#000000" class="active-path" data-old_color="#000000" fill="#FFFFFF"/><circle id="Oval" cx="5" cy="8" r="1" data-original="#000000" class="active-path" data-old_color="#000000" fill="#FFFFFF"/><circle id="Oval" cx="1" cy="8" r="1" data-original="#000000" class="active-path" data-old_color="#000000" fill="#FFFFFF"/></g></g></g> </svg>
