<?xml version="1.0"?>
<svg xmlns="http://www.w3.org/2000/svg" height="512px" viewBox="0 0 64 64" width="512px" class=""><g><path d="m50.425 23.1a25.551 25.551 0 0 0 -8.025-2.058 17.108 17.108 0 0 0 3.6-10.042 1 1 0 0 0 -1.33-.944 29.384 29.384 0 0 0 -8.079 4.325 17.445 17.445 0 0 0 -3.88-12.052 1 1 0 0 0 -.741-.329 1 1 0 0 0 -.742.333 17.5 17.5 0 0 0 -3.828 11.989 21.951 21.951 0 0 0 -8.148-4.289 1 1 0 0 0 -1.249 1.072 22.359 22.359 0 0 0 3.797 9.921 25.512 25.512 0 0 0 -8.225 2.074 1 1 0 0 0 -.317 1.576c.122.135 2.669 2.87 8.641 3.312a23.638 23.638 0 0 0 -3.748 4.489 1 1 0 0 0 .707 1.518c.286.039 6.492.879 10.068-2.423l2.074 2.761v3.667h-2v2h2v4h-4v-2a4 4 0 0 0 -3-3.858v-2.142h-2v2.142a4 4 0 0 0 -3 3.858h2a2 2 0 0 1 4 0v2h-7a1 1 0 0 0 -1 1v4a1 1 0 0 0 1 1h1.153l1.861 11.164a1 1 0 0 0 .986.836h20a1 1 0 0 0 .986-.836l1.861-11.164h1.153a1 1 0 0 0 1-1v-4a1 1 0 0 0 -1-1h-7v-3a3 3 0 0 1 2-2.816v1.816h2v-1.816a3 3 0 0 1 2 2.816h2a5 5 0 0 0 -9.9-1h-2.1v2h2v2h-4v-7h2v-2h-2v-.667l1.985-2.646c3.041 3.146 9.819 2.344 10.139 2.3a1 1 0 0 0 .725-1.52 23.668 23.668 0 0 0 -3.773-4.511 16.352 16.352 0 0 0 8.57-3.2 1 1 0 0 0 -.221-1.669zm-9.272 36.9h-18.306l-1.666-10h21.638zm3.847-14v2h-26v-2zm-5.824-19.995-2.86-.953-.632 1.9 2.913.971a15.169 15.169 0 0 1 4.556 4.2c-2.526.047-6.177-.4-7.258-2.562a1 1 0 0 0 -.8-.549.986.986 0 0 0 -.89.4l-2.205 2.921-2.2-2.933a1 1 0 0 0 -1.6 0c-1.74 2.32-5.17 2.709-7.275 2.709h-.074a15.137 15.137 0 0 1 4.549-4.19l2.913-.971-.632-1.9-2.86.953a15.528 15.528 0 0 1 -8.788-1.73 21.66 21.66 0 0 1 7.917-1.271h.05 2v-2h-1.568a15.7 15.7 0 0 1 -3.506-6.127l2.306 2.768 1.536-1.282-2.54-3.048c2.151 1.04 4.714 2.712 5.871 5.122l.009.013 1 2 1.79-.894-.948-1.9a16.035 16.035 0 0 1 1.031-11.252l.019 5.6h2l-.019-5.6a15.914 15.914 0 0 1 1.072 11.254l-.948 1.9 1.79.894 1-2-.015-.007a1.088 1.088 0 0 0 .064-.11c.626-1.789 3.185-3.5 5.588-4.73l-2.3 2.759 1.536 1.282 2.742-3.29a12.792 12.792 0 0 1 -3.899 6.648h-1.611v2h2v-.006c.017 0 .033.006.05 0a21.545 21.545 0 0 1 7.758 1.225 16.214 16.214 0 0 1 -8.632 1.786z" data-original="#000000" class="active-path" data-old_color="#000000" fill="#FFFFFF"/><path d="m29 22h2v2h-2z" data-original="#000000" class="active-path" data-old_color="#000000" fill="#FFFFFF"/><path d="m32 25h2v2h-2z" data-original="#000000" class="active-path" data-old_color="#000000" fill="#FFFFFF"/><path d="m32 58v-2h-6.18l-.84-4.196-1.96.392 1.16 5.804z" data-original="#000000" class="active-path" data-old_color="#000000" fill="#FFFFFF"/><path d="m34 56h2v2h-2z" data-original="#000000" class="active-path" data-old_color="#000000" fill="#FFFFFF"/></g> </svg>
