<?xml version="1.0"?>
<svg xmlns="http://www.w3.org/2000/svg" id="Layer_3" enable-background="new 0 0 64 64" height="512px" viewBox="0 0 64 64" width="512px" class=""><g><path d="m25 47h-7v-2.382l2.553 1.276.895-1.789-1.25-.625.672-.168h.001c1.073-.269 2.055-.823 2.836-1.605.782-.781 1.337-1.763 1.605-2.837l.657-2.628c.086-.341-.015-.701-.263-.949s-.609-.35-.949-.263l-2.629.657c-.788.197-1.525.551-2.171 1.034.014-.24.043-.48.043-.721 0-2.118-.501-4.238-1.447-6.13l-.658-1.317c-.338-.678-1.451-.678-1.789 0l-.658 1.317c-.947 1.892-1.448 4.012-1.448 6.13 0 .241.029.481.042.722-.646-.483-1.383-.837-2.172-1.034l-2.628-.658c-.338-.087-.701.015-.949.263s-.349.608-.263.949l.657 2.629c.269 1.073.823 2.055 1.605 2.836.781.782 1.763 1.337 2.836 1.605h.001l.672.168-1.25.625.895 1.789 2.554-1.276v2.382h-7c-.553 0-1 .447-1 1v4c0 .553.447 1 1 1h1.095l.91 9.1c.051.51.481.9.995.9h10c.514 0 .944-.39.995-.9l.91-9.1h1.095c.553 0 1-.447 1-1v-4c0-.553-.447-1-1-1zm-2.386-9.373 1.011-.252-.252 1.01c-.182.723-.555 1.383-1.08 1.908s-1.186.898-1.908 1.08l-1.01.252.252-1.01c.182-.723.555-1.383 1.08-1.908s1.186-.898 1.907-1.08zm-5.614-6.361c.655 1.485 1 3.11 1 4.734s-.345 3.249-1 4.734c-.655-1.485-1-3.11-1-4.734s.345-3.249 1-4.734zm-5.293 9.027c-.525-.525-.898-1.186-1.08-1.907l-.252-1.011 1.01.252c.723.182 1.383.555 1.908 1.08s.898 1.186 1.08 1.907l.252 1.011-1.01-.252c-.722-.182-1.383-.555-1.908-1.08zm9.388 20.707h-8.189l-.8-8h9.79zm2.905-10h-14v-2h14z" data-original="#000000" class="active-path" data-old_color="#000000" fill="#FFFFFF"/><path d="m55 41h-10v-7.382l1.658.829c.724.362 1.533.553 2.342.553s1.618-.191 2.342-.553l3.105-1.553c.339-.169.553-.515.553-.894s-.214-.725-.553-.895l-3.105-1.553c-.132-.066-.269-.119-.406-.173.262-.218.529-.431.771-.673 1.438-1.437 2.457-3.238 2.948-5.208l.314-1.256c.086-.341-.014-.701-.263-.95-.248-.249-.61-.347-.949-.263l-1.256.314c-1.971.493-3.772 1.512-5.209 2.949-.12.12-.219.256-.332.381.012-.224.04-.448.04-.673 0-2.118-.501-4.238-1.447-6.13l-.658-1.317c-.338-.678-1.451-.678-1.789 0l-.658 1.317c-.947 1.892-1.448 4.012-1.448 6.13 0 .225.028.449.04.674-.114-.125-.213-.261-.333-.381-1.437-1.437-3.238-2.457-5.209-2.949l-1.256-.314c-.338-.084-.701.015-.949.263-.249.249-.349.609-.263.95l.313 1.255c.492 1.971 1.512 3.772 2.949 5.209.242.242.509.455.771.673-.137.054-.274.107-.406.173l-3.105 1.553c-.338.169-.552.515-.552.894s.214.725.553.895l3.105 1.553c.724.361 1.533.552 2.342.552s1.618-.191 2.342-.553l1.658-.829v7.382h-10c-.553 0-1 .447-1 1v4c0 .553.447 1 1 1h1.061l.941 15.062c.033.528.47.938.998.938h16c.528 0 .965-.41.998-.938l.941-15.062h1.061c.553 0 1-.447 1-1v-4c0-.553-.447-1-1-1zm-3.236-9-1.316.658c-.895.447-2 .447-2.895 0l-1.317-.658 1.316-.658c.895-.447 2-.447 2.895 0zm-3.057-6.293c1.09-1.089 2.434-1.887 3.907-2.321-.435 1.473-1.231 2.817-2.321 3.907-1.09 1.089-2.434 1.887-3.907 2.321.434-1.473 1.231-2.817 2.321-3.907zm-4.707-6.441c.655 1.485 1 3.11 1 4.734s-.345 3.249-1 4.734c-.655-1.485-1-3.11-1-4.734s.345-3.249 1-4.734zm-8.614 4.12c1.474.435 2.817 1.232 3.907 2.321 1.09 1.09 1.887 2.434 2.321 3.907-1.474-.435-2.817-1.232-3.907-2.321-1.09-1.09-1.887-2.434-2.321-3.907zm5.061 9.272c-.895.447-2 .447-2.895 0l-1.316-.658 1.316-.658c.895-.447 2-.447 2.895 0l1.317.658zm10.614 28.342h-14.122l-.875-14h15.871zm2.939-16h-20v-2h20z" data-original="#000000" class="active-path" data-old_color="#000000" fill="#FFFFFF"/><path d="m23 12.343v-.343c0-.552-.447-1-1-1s-1 .448-1 1v.343c0 2.091-.814 4.057-2.293 5.536-1.101 1.1-1.707 2.564-1.707 4.121 0 2.757 2.243 5 5 5s5-2.243 5-5c0-1.557-.606-3.021-1.707-4.121-1.479-1.479-2.293-3.444-2.293-5.536zm-1 12.657c-1.654 0-3-1.346-3-3 0-1.022.398-1.984 1.121-2.707.777-.776 1.408-1.661 1.879-2.619.471.958 1.102 1.842 1.879 2.619.723.723 1.121 1.685 1.121 2.707 0 1.654-1.346 3-3 3z" data-original="#000000" class="active-path" data-old_color="#000000" fill="#FFFFFF"/><path d="m37 12c0-1.557-.606-3.021-1.707-4.121-1.479-1.479-2.293-3.444-2.293-5.536v-.343c0-.552-.447-1-1-1s-1 .448-1 1v.343c0 2.091-.814 4.057-2.293 5.536-1.101 1.1-1.707 2.564-1.707 4.121 0 2.757 2.243 5 5 5s5-2.243 5-5zm-8 0c0-1.022.398-1.984 1.121-2.707.777-.776 1.408-1.661 1.879-2.619.471.958 1.102 1.842 1.879 2.619.723.723 1.121 1.685 1.121 2.707 0 1.654-1.346 3-3 3s-3-1.346-3-3z" data-original="#000000" class="active-path" data-old_color="#000000" fill="#FFFFFF"/></g> </svg>
